<svg width="46" height="46" viewBox="0 0 46 46" fill="none" xmlns="http://www.w3.org/2000/svg">
<path d="M4.25 18.3125C4.25062 17.7657 4.46811 17.2414 4.85477 16.8548C5.24143 16.4681 5.76568 16.2506 6.3125 16.25H14.1875C14.7343 16.2506 15.2586 16.4681 15.6452 16.8548C16.0319 17.2414 16.2494 17.7657 16.25 18.3125V22.25H17.75V18.3125C17.7489 17.368 17.3732 16.4625 16.7054 15.7946C16.0375 15.1268 15.132 14.7511 14.1875 14.75H14V10.4375C13.9995 9.9901 13.8215 9.56118 13.5052 9.24482C13.1888 8.92846 12.7599 8.75051 12.3125 8.75H8.1875C7.7401 8.75051 7.31118 8.92846 6.99482 9.24482C6.67846 9.56118 6.50051 9.9901 6.5 10.4375V14.75H6.3125C5.368 14.7511 4.46248 15.1268 3.79462 15.7946C3.12675 16.4625 2.75107 17.368 2.75 18.3125V23H4.25V18.3125ZM8 10.4375C8.00006 10.3878 8.01983 10.3401 8.05498 10.305C8.09013 10.2698 8.13779 10.2501 8.1875 10.25H12.3125C12.3622 10.2501 12.4099 10.2698 12.445 10.305C12.4802 10.3401 12.4999 10.3878 12.5 10.4375V14.75H8V10.4375Z" fill="#48B774"/>
<path d="M14.75 23V20.1875C14.7495 19.7401 14.5715 19.3112 14.2552 18.9948C13.9388 18.6785 13.5099 18.5005 13.0625 18.5H7.4375C6.9901 18.5005 6.56118 18.6785 6.24482 18.9948C5.92846 19.3112 5.75051 19.7401 5.75 20.1875V23H7.25V20.1875C7.25006 20.1378 7.26983 20.0901 7.30498 20.055C7.34013 20.0198 7.38779 20.0001 7.4375 20H13.0625C13.1122 20.0001 13.1599 20.0198 13.195 20.055C13.2302 20.0901 13.2499 20.1378 13.25 20.1875V23H14.75Z" fill="#48B774"/>
<path d="M5.75 38C5.30499 38 4.86998 38.132 4.49997 38.3792C4.12996 38.6264 3.84157 38.9778 3.67127 39.389C3.50097 39.8001 3.45642 40.2525 3.54323 40.689C3.63005 41.1254 3.84434 41.5263 4.15901 41.841C4.47368 42.1557 4.87459 42.3699 5.31105 42.4568C5.74751 42.5436 6.1999 42.499 6.61104 42.3287C7.02217 42.1584 7.37357 41.87 7.62081 41.5C7.86804 41.13 8 40.695 8 40.25C7.99933 39.6535 7.76206 39.0816 7.34025 38.6598C6.91843 38.2379 6.34653 38.0007 5.75 38ZM5.75 41C5.60167 41 5.45666 40.956 5.33332 40.8736C5.20999 40.7912 5.11386 40.6741 5.05709 40.537C5.00033 40.4 4.98547 40.2492 5.01441 40.1037C5.04335 39.9582 5.11478 39.8246 5.21967 39.7197C5.32456 39.6148 5.4582 39.5433 5.60368 39.5144C5.74917 39.4855 5.89997 39.5003 6.03701 39.5571C6.17406 39.6139 6.29119 39.71 6.3736 39.8333C6.45601 39.9567 6.5 40.1017 6.5 40.25C6.49977 40.4488 6.42068 40.6395 6.28008 40.7801C6.13948 40.9207 5.94884 40.9998 5.75 41Z" fill="#48B774"/>
<path d="M17.0637 14.3027C17.106 14.3984 17.1677 14.4842 17.2451 14.5546C17.3224 14.625 17.4136 14.6784 17.5128 14.7115L19.7628 15.4615C19.903 15.5082 20.0539 15.5125 20.1965 15.4738C20.3391 15.435 20.4671 15.355 20.5644 15.2438L24.5 10.7461V12.2636L19.3856 19.5699C19.2973 19.6959 19.25 19.8461 19.25 20V22.25H20.75V20.2364L25.6405 13.25H29.192L31.25 20.11V23H32.75V20C32.75 19.927 32.7393 19.8544 32.7184 19.7845L30.5 12.3899V9.5V9.49781C30.5 9.49288 30.4999 9.48797 30.4998 9.48306L30.4997 9.47952C30.4996 9.47439 30.4994 9.46926 30.4992 9.46413L30.4988 9.45743L30.4982 9.44868C30.4978 9.44282 30.4974 9.43701 30.4968 9.4312L30.4967 9.42957C30.4865 9.31946 30.4519 9.213 30.3955 9.1179L27.4012 3.87793C27.3356 3.76312 27.2408 3.66769 27.1265 3.60132C27.0121 3.53495 26.8822 3.5 26.75 3.5H17.75C17.5511 3.5 17.3603 3.57902 17.2197 3.71967C17.079 3.86032 17 4.05109 17 4.25V6.5C17 6.65742 17.0495 6.81084 17.1416 6.93855C17.2336 7.06626 17.3635 7.16177 17.5128 7.21156L18.6112 7.57767L18.5536 7.72152C18.5139 7.8209 18.4959 7.92765 18.5008 8.03458C18.5057 8.14151 18.5335 8.24615 18.5822 8.34146C18.6309 8.43677 18.6995 8.52054 18.7833 8.58714C18.8671 8.65374 18.9642 8.70163 19.0681 8.72758L19.2521 8.7736L17.0646 13.6955C17.0222 13.791 17.0001 13.8944 17 13.999C16.9998 14.1035 17.0216 14.207 17.0637 14.3027ZM26 11.75V10.25H29V11.75H26ZM21.2577 5H26.3148L28.4576 8.75H25.3423L20.2655 7.4808L21.2577 5ZM18.5 5.95938V5H19.6422L19.1693 6.18245L18.5 5.95938ZM20.7295 9.1429L23.3389 9.79526L19.764 13.8808L18.7709 13.5497L20.7295 9.1429Z" fill="#48B774"/>
<path d="M45.374 37.584L41.1523 31.2515C40.9985 31.0201 40.7897 30.8304 40.5447 30.6993C40.2997 30.5682 40.0261 30.4997 39.7482 30.5H38.75V7.25H37.25V30.5H35.75V2.1875C35.7501 2.13779 35.7698 2.09013 35.805 2.05498C35.8401 2.01983 35.8878 2.00006 35.9375 2H37.0625C37.1122 2.00006 37.1599 2.01983 37.195 2.05498C37.2302 2.09013 37.2499 2.13779 37.25 2.1875V5.75H38.75V2.1875C38.7495 1.7401 38.5715 1.31118 38.2552 0.994822C37.9388 0.678465 37.5099 0.500511 37.0625 0.5H35.9375C35.4901 0.500511 35.0612 0.678465 34.7448 0.994822C34.4285 1.31118 34.2505 1.7401 34.25 2.1875V24.5H26C26 24.3011 25.921 24.1103 25.7803 23.9697C25.6397 23.829 25.4489 23.75 25.25 23.75H12.5C12.3011 23.75 12.1103 23.829 11.9697 23.9697C11.829 24.1103 11.75 24.3011 11.75 24.5H1.25C1.05109 24.5 0.860322 24.579 0.71967 24.7197C0.579018 24.8603 0.5 25.0511 0.5 25.25V26.375C0.500779 27.071 0.777591 27.7382 1.26971 28.2303C1.76182 28.7224 2.42905 28.9992 3.125 29H3.5V32H5V29H11.75V38C11.75 38.1989 11.829 38.3897 11.9697 38.5303C12.1103 38.671 12.3011 38.75 12.5 38.75H21.5V37.25H13.25V35H24.5V37.25H23V38.75H25.25C25.4489 38.75 25.6397 38.671 25.7803 38.5303C25.921 38.3897 26 38.1989 26 38V29H34.25V30.5H33.2518C32.9739 30.4997 32.7003 30.5682 32.4553 30.6993C32.2103 30.8304 32.0015 31.0201 31.8477 31.2515L27.626 37.584C27.5438 37.7072 27.5 37.8519 27.5 38V44H9.42071C10.2114 43.2255 10.7371 42.2208 10.9227 41.1296C11.1082 40.0384 10.944 38.9164 10.4537 37.9241C9.96337 36.9318 9.17192 36.1198 8.19244 35.6042C7.21297 35.0887 6.0956 34.8959 5 35.0534V33.5H3.5V35.507C2.42303 36.0178 1.55195 36.8799 1.03003 37.9515C0.508101 39.0232 0.366401 40.2405 0.628227 41.4034C0.890054 42.5662 1.53982 43.6054 2.47067 44.3499C3.40152 45.0945 4.55802 45.5 5.75 45.5C5.87607 45.5 6.00107 45.4956 6.125 45.4867V45.5H44.75C44.9489 45.5 45.1397 45.421 45.2803 45.2803C45.421 45.1397 45.5 44.9489 45.5 44.75V38C45.5 37.8519 45.4562 37.7072 45.374 37.584ZM24.5 25.25V30.5H13.25V25.25H24.5ZM3.125 27.5C2.82673 27.4997 2.54078 27.381 2.32987 27.1701C2.11897 26.9592 2.00033 26.6733 2 26.375V26H11.75V27.5H3.125ZM13.25 33.5V32H24.5V33.5H13.25ZM26 27.5V26H34.25V27.5H26ZM2 40.25C2 39.5083 2.21993 38.7833 2.63199 38.1666C3.04404 37.5499 3.62971 37.0693 4.31494 36.7855C5.00016 36.5016 5.75416 36.4274 6.48159 36.5721C7.20902 36.7168 7.8772 37.0739 8.40165 37.5984C8.9261 38.1228 9.28325 38.791 9.42795 39.5184C9.57264 40.2458 9.49838 40.9998 9.21455 41.6851C8.93072 42.3703 8.45007 42.956 7.83339 43.368C7.2167 43.7801 6.49168 44 5.75 44C4.75578 43.9989 3.80261 43.6034 3.0996 42.9004C2.39658 42.1974 2.00113 41.2442 2 40.25ZM33.0957 32.0835C33.1128 32.0578 33.136 32.0367 33.1632 32.0221C33.1905 32.0076 33.2209 32 33.2518 32H39.7482C39.7791 32 39.8095 32.0076 39.8368 32.0221C39.864 32.0367 39.8872 32.0578 39.9043 32.0835L43.8486 38H29.1514L33.0957 32.0835ZM41 44V41H39.5V44H37.25V41H35.75V44H33.5V41H32V44H29V39.5H44V44H41Z" fill="#48B774"/>
<path d="M33.5 34.25H35V35.75H33.5V34.25Z" fill="#48B774"/>
<path d="M38 34.25H39.5V35.75H38V34.25Z" fill="#48B774"/>
<path d="M41.75 11H43.25V12.5H41.75V11Z" fill="#48B774"/>
<path d="M41.75 14H43.25V15.5H41.75V14Z" fill="#48B774"/>
<path d="M40.25 12.5H41.75V14H40.25V12.5Z" fill="#48B774"/>
<path d="M43.25 12.5H44.75V14H43.25V12.5Z" fill="#48B774"/>
<path d="M4.25 2.75H5.75V4.25H4.25V2.75Z" fill="#48B774"/>
<path d="M4.25 5.75H5.75V7.25H4.25V5.75Z" fill="#48B774"/>
<path d="M2.75 4.25H4.25V5.75H2.75V4.25Z" fill="#48B774"/>
<path d="M5.75 4.25H7.25V5.75H5.75V4.25Z" fill="#48B774"/>
</svg>
