<svg width="32" height="32" viewBox="0 0 32 32" fill="none" xmlns="http://www.w3.org/2000/svg">
<path d="M19.1231 17.9385C18.731 17.5514 18.2416 17.5514 17.852 17.9385C17.5549 18.2331 17.2577 18.5278 16.9656 18.8274C16.8857 18.9099 16.8183 18.9273 16.7209 18.8724C16.5286 18.7675 16.3238 18.6826 16.139 18.5678C15.2775 18.0259 14.5559 17.3292 13.9166 16.5451C13.5995 16.1556 13.3173 15.7386 13.1201 15.2691C13.0801 15.1742 13.0876 15.1118 13.165 15.0344C13.4622 14.7472 13.7518 14.4526 14.044 14.1579C14.451 13.7484 14.451 13.2689 14.0415 12.8569C13.8093 12.6222 13.577 12.3925 13.3448 12.1577C13.1051 11.918 12.8679 11.6758 12.6256 11.4386C12.2336 11.0565 11.7442 11.0565 11.3546 11.4411C11.055 11.7357 10.7678 12.0379 10.4632 12.3275C10.181 12.5947 10.0387 12.9218 10.0087 13.3039C9.96125 13.9257 10.1136 14.5125 10.3283 15.0843C10.7678 16.2679 11.437 17.3192 12.2486 18.2831C13.3448 19.5866 14.6533 20.6179 16.184 21.362C16.8732 21.6966 17.5874 21.9538 18.3639 21.9962C18.8983 22.0262 19.3628 21.8914 19.7348 21.4744C19.9896 21.1897 20.2767 20.93 20.5464 20.6578C20.9459 20.2533 20.9484 19.7639 20.5514 19.3643C20.077 18.8874 19.6 18.4129 19.1231 17.9385Z" fill="#1F6BFF"/>
<path d="M18.6443 15.9483L19.5658 15.791C19.4209 14.9445 19.0214 14.1779 18.4146 13.5686C17.7729 12.9268 16.9613 12.5223 16.0673 12.3975L15.9375 13.3239C16.6292 13.4213 17.2585 13.7334 17.7554 14.2303C18.2248 14.6998 18.532 15.2941 18.6443 15.9483Z" fill="#1F6BFF"/>
<path d="M20.0878 11.9427C19.024 10.879 17.6781 10.2073 16.1923 10L16.0625 10.9264C17.346 11.1062 18.5096 11.688 19.4286 12.6045C20.3001 13.4759 20.8719 14.5772 21.0791 15.7882L22.0006 15.6309C21.7584 14.2276 21.0966 12.9541 20.0878 11.9427Z" fill="#1F6BFF"/>
<circle cx="16" cy="16" r="15.5" stroke="#1F6BFF"/>
</svg>
