<svg width="107" height="107" viewBox="0 0 107 107" fill="none" xmlns="http://www.w3.org/2000/svg">
<path d="M45.271 5.97871C50.1778 2.41369 56.8222 2.4137 61.729 5.97871L96.1525 30.9889C101.059 34.5539 103.113 40.873 101.238 46.6414L88.0897 87.1087C86.2155 92.877 80.8401 96.7824 74.7749 96.7824H32.2251C26.1599 96.7824 20.7845 92.877 18.9103 87.1087L5.76167 46.6413C3.88743 40.873 5.94065 34.5539 10.8475 30.9889L45.271 5.97871Z" fill="#FFCA45" fill-opacity="0.1"/>
<path d="M46.3094 60.24C44.3094 60.24 42.7814 59.488 41.7254 57.984C40.6694 56.464 40.1414 54.304 40.1414 51.504C40.1414 48.672 40.6694 46.52 41.7254 45.048C42.7814 43.576 44.3094 42.84 46.3094 42.84C48.3254 42.84 49.8534 43.576 50.8934 45.048C51.9494 46.52 52.4774 48.664 52.4774 51.48C52.4774 54.296 51.9494 56.464 50.8934 57.984C49.8374 59.488 48.3094 60.24 46.3094 60.24ZM46.3094 57.72C47.3974 57.72 48.1974 57.216 48.7094 56.208C49.2374 55.2 49.5014 53.624 49.5014 51.48C49.5014 49.336 49.2374 47.784 48.7094 46.824C48.1974 45.848 47.3974 45.36 46.3094 45.36C45.2374 45.36 44.4374 45.848 43.9094 46.824C43.3814 47.784 43.1174 49.336 43.1174 51.48C43.1174 53.624 43.3814 55.2 43.9094 56.208C44.4374 57.216 45.2374 57.72 46.3094 57.72ZM60.364 60.24C59.5 60.24 58.604 60.128 57.676 59.904C56.748 59.68 55.94 59.344 55.252 58.896C54.852 58.624 54.612 58.32 54.532 57.984C54.452 57.632 54.492 57.32 54.652 57.048C54.812 56.76 55.052 56.568 55.372 56.472C55.708 56.376 56.084 56.44 56.5 56.664C57.156 57.016 57.788 57.272 58.396 57.432C59.004 57.576 59.628 57.648 60.268 57.648C62.428 57.648 63.508 56.8 63.508 55.104C63.508 54.304 63.236 53.712 62.692 53.328C62.164 52.928 61.388 52.728 60.364 52.728H58.828C58.38 52.728 58.036 52.616 57.796 52.392C57.572 52.168 57.46 51.856 57.46 51.456C57.46 51.056 57.572 50.744 57.796 50.52C58.036 50.296 58.38 50.184 58.828 50.184H60.076C60.972 50.184 61.684 49.968 62.212 49.536C62.74 49.088 63.004 48.472 63.004 47.688C63.004 46.952 62.756 46.392 62.26 46.008C61.78 45.624 61.076 45.432 60.148 45.432C59.556 45.432 58.996 45.504 58.468 45.648C57.956 45.776 57.388 46.024 56.764 46.392C56.396 46.616 56.06 46.68 55.756 46.584C55.452 46.472 55.212 46.28 55.036 46.008C54.876 45.72 54.828 45.408 54.892 45.072C54.956 44.736 55.18 44.448 55.564 44.208C56.972 43.296 58.588 42.84 60.412 42.84C62.172 42.84 63.54 43.24 64.516 44.04C65.492 44.824 65.98 45.92 65.98 47.328C65.98 48.24 65.748 49.04 65.284 49.728C64.82 50.416 64.188 50.912 63.388 51.216C64.364 51.488 65.124 51.992 65.668 52.728C66.212 53.448 66.484 54.328 66.484 55.368C66.484 56.872 65.94 58.064 64.852 58.944C63.764 59.808 62.268 60.24 60.364 60.24Z" fill="#FFCA45"/>
</svg>
