<svg width="107" height="107" viewBox="0 0 107 107" fill="none" xmlns="http://www.w3.org/2000/svg">
<path d="M45.271 5.97871C50.1778 2.41369 56.8222 2.4137 61.729 5.97871L96.1525 30.9889C101.059 34.5539 103.113 40.873 101.238 46.6414L88.0897 87.1087C86.2155 92.877 80.8401 96.7824 74.7749 96.7824H32.2251C26.1599 96.7824 20.7845 92.877 18.9103 87.1087L5.76167 46.6413C3.88743 40.873 5.94065 34.5539 10.8475 30.9889L45.271 5.97871Z" fill="#37D348" fill-opacity="0.1"/>
<path d="M46.3094 61.24C44.3094 61.24 42.7814 60.488 41.7254 58.984C40.6694 57.464 40.1414 55.304 40.1414 52.504C40.1414 49.672 40.6694 47.52 41.7254 46.048C42.7814 44.576 44.3094 43.84 46.3094 43.84C48.3254 43.84 49.8534 44.576 50.8934 46.048C51.9494 47.52 52.4774 49.664 52.4774 52.48C52.4774 55.296 51.9494 57.464 50.8934 58.984C49.8374 60.488 48.3094 61.24 46.3094 61.24ZM46.3094 58.72C47.3974 58.72 48.1974 58.216 48.7094 57.208C49.2374 56.2 49.5014 54.624 49.5014 52.48C49.5014 50.336 49.2374 48.784 48.7094 47.824C48.1974 46.848 47.3974 46.36 46.3094 46.36C45.2374 46.36 44.4374 46.848 43.9094 47.824C43.3814 48.784 43.1174 50.336 43.1174 52.48C43.1174 54.624 43.3814 56.2 43.9094 57.208C44.4374 58.216 45.2374 58.72 46.3094 58.72ZM63.412 61.192C62.932 61.192 62.556 61.064 62.284 60.808C62.012 60.536 61.876 60.152 61.876 59.656V57.784H55.948C55.452 57.784 55.052 57.68 54.748 57.472C54.46 57.264 54.316 56.944 54.316 56.512C54.316 56.24 54.38 55.952 54.508 55.648C54.652 55.344 54.9 54.944 55.252 54.448L61.828 44.92C62.052 44.584 62.3 44.328 62.572 44.152C62.844 43.976 63.156 43.888 63.508 43.888C63.924 43.888 64.268 44.016 64.54 44.272C64.812 44.512 64.948 44.896 64.948 45.424V55.24H66.124C67.052 55.24 67.516 55.664 67.516 56.512C67.516 57.36 67.052 57.784 66.124 57.784H64.948V59.656C64.948 60.152 64.812 60.536 64.54 60.808C64.268 61.064 63.892 61.192 63.412 61.192ZM61.876 55.24V48.784L57.46 55.24H61.876Z" fill="#37D348"/>
</svg>
