<svg width="107" height="107" viewBox="0 0 107 107" fill="none" xmlns="http://www.w3.org/2000/svg">
<path d="M45.271 5.97822C50.1778 2.41321 56.8222 2.41321 61.729 5.97823L96.1525 30.9884C101.059 34.5534 103.113 40.8725 101.238 46.6409L88.0897 87.1082C86.2155 92.8765 80.8401 96.7819 74.7749 96.7819H32.2251C26.1599 96.7819 20.7845 92.8765 18.9103 87.1082L5.76167 46.6409C3.88743 40.8725 5.94065 34.5534 10.8475 30.9884L45.271 5.97822Z" fill="#FE6B01" fill-opacity="0.1"/>
<path d="M46.3094 61.2395C44.3094 61.2395 42.7814 60.4875 41.7254 58.9835C40.6694 57.4635 40.1414 55.3035 40.1414 52.5035C40.1414 49.6715 40.6694 47.5195 41.7254 46.0475C42.7814 44.5755 44.3094 43.8395 46.3094 43.8395C48.3254 43.8395 49.8534 44.5755 50.8934 46.0475C51.9494 47.5195 52.4774 49.6635 52.4774 52.4795C52.4774 55.2955 51.9494 57.4635 50.8934 58.9835C49.8374 60.4875 48.3094 61.2395 46.3094 61.2395ZM46.3094 58.7195C47.3974 58.7195 48.1974 58.2155 48.7094 57.2075C49.2374 56.1995 49.5014 54.6235 49.5014 52.4795C49.5014 50.3355 49.2374 48.7835 48.7094 47.8235C48.1974 46.8475 47.3974 46.3595 46.3094 46.3595C45.2374 46.3595 44.4374 46.8475 43.9094 47.8235C43.3814 48.7835 43.1174 50.3355 43.1174 52.4795C43.1174 54.6235 43.3814 56.1995 43.9094 57.2075C44.4374 58.2155 45.2374 58.7195 46.3094 58.7195ZM57.244 60.9995C56.364 60.9995 55.924 60.5675 55.924 59.7035C55.924 58.8715 56.364 58.4555 57.244 58.4555H59.932V47.5835L57.892 48.8075C57.508 49.0315 57.156 49.0875 56.836 48.9755C56.532 48.8635 56.3 48.6635 56.14 48.3755C55.98 48.0875 55.932 47.7755 55.996 47.4395C56.06 47.0875 56.284 46.7995 56.668 46.5755L59.98 44.5835C60.3 44.3915 60.62 44.2315 60.94 44.1035C61.26 43.9595 61.556 43.8875 61.828 43.8875C62.164 43.8875 62.444 43.9835 62.668 44.1755C62.892 44.3515 63.004 44.6475 63.004 45.0635V58.4555H65.452C66.332 58.4555 66.772 58.8715 66.772 59.7035C66.772 60.5675 66.332 60.9995 65.452 60.9995H57.244Z" fill="#FF8345"/>
</svg>
