<svg width="165" height="221" viewBox="0 0 165 221" fill="none" xmlns="http://www.w3.org/2000/svg">
<path d="M9.95519 19.9104C15.4533 19.9104 19.9104 15.4533 19.9104 9.95521C19.9104 4.4571 15.4533 0 9.95519 0C4.45708 0 0 4.4571 0 9.95521C0 15.4533 4.45708 19.9104 9.95519 19.9104Z" fill="#BADAF4"/>
<path d="M52.84 9.76182C52.84 14.9628 48.6229 19.1797 43.4219 19.1797C38.2209 19.1797 34.0039 14.9628 34.0039 9.76182C34.0039 4.56081 38.2209 0.34375 43.4219 0.34375C48.6229 0.34375 52.84 4.56081 52.84 9.76182Z" fill="#BADAF4"/>
<path d="M83.2489 9.7553C83.2489 14.63 79.298 18.5809 74.4233 18.5809C69.5486 18.5809 65.5977 14.63 65.5977 9.7553C65.5977 4.88062 69.5486 0.929688 74.4233 0.929688C79.298 0.929688 83.2489 4.88062 83.2489 9.7553Z" fill="#BADAF4"/>
<path d="M112.485 9.57839C112.485 14.0565 108.855 17.6862 104.377 17.6862C99.8992 17.6862 96.2695 14.0565 96.2695 9.57839C96.2695 5.10031 99.8992 1.4707 104.377 1.4707C108.855 1.4707 112.485 5.10031 112.485 9.57839Z" fill="#BADAF4"/>
<path d="M140.22 9.95586C140.22 14.188 136.791 17.6168 132.559 17.6168C128.327 17.6168 124.898 14.188 124.898 9.95586C124.898 5.72377 128.327 2.29492 132.559 2.29492C136.791 2.29492 140.22 5.72377 140.22 9.95586Z" fill="#BADAF4"/>
<path d="M165.661 9.9594C165.661 13.9254 162.443 17.1434 158.477 17.1434C154.511 17.1434 151.293 13.9254 151.293 9.9594C151.293 5.99338 154.511 2.77539 158.477 2.77539C162.443 2.77539 165.661 5.98836 165.661 9.9594Z" fill="#BADAF4"/>
<path d="M9.95519 48.5315C15.4533 48.5315 19.9104 44.0744 19.9104 38.5763C19.9104 33.0782 15.4533 28.6211 9.95519 28.6211C4.45708 28.6211 0 33.0782 0 38.5763C0 44.0744 4.45708 48.5315 9.95519 48.5315Z" fill="#BADAF4"/>
<path d="M52.84 38.3829C52.84 43.5839 48.6229 47.801 43.4219 47.801C38.2209 47.801 34.0039 43.5839 34.0039 38.3829C34.0039 33.1819 38.2209 28.9648 43.4219 28.9648C48.6229 28.9598 52.84 33.1819 52.84 38.3829Z" fill="#BADAF4"/>
<path d="M83.2489 38.3881C83.2489 43.2628 79.298 47.2137 74.4233 47.2137C69.5486 47.2137 65.5977 43.2628 65.5977 38.3881C65.5977 33.5134 69.5486 29.5625 74.4233 29.5625C79.298 29.5625 83.2489 33.5134 83.2489 38.3881Z" fill="#BADAF4"/>
<path d="M112.485 38.1899C112.485 42.668 108.855 46.2976 104.377 46.2976C99.8992 46.2976 96.2695 42.668 96.2695 38.1899C96.2695 33.7118 99.8992 30.082 104.377 30.082C108.855 30.0871 112.485 33.7118 112.485 38.1899Z" fill="#BADAF4"/>
<path d="M140.22 38.575C140.22 42.8071 136.791 46.2359 132.559 46.2359C128.327 46.2359 124.898 42.8071 124.898 38.575C124.898 34.3429 128.327 30.9141 132.559 30.9141C136.791 30.9141 140.22 34.3479 140.22 38.575Z" fill="#BADAF4"/>
<path d="M165.661 38.5824C165.661 42.5485 162.443 45.7665 158.477 45.7665C154.511 45.7665 151.293 42.5485 151.293 38.5824C151.293 34.6164 154.511 31.3984 158.477 31.3984C162.443 31.3984 165.661 34.6164 165.661 38.5824Z" fill="#BADAF4"/>
<path d="M9.95519 77.1546C15.4533 77.1546 19.9104 72.6975 19.9104 67.1993C19.9104 61.7012 15.4533 57.2441 9.95519 57.2441C4.45708 57.2441 0 61.7012 0 67.1993C0 72.6975 4.45708 77.1546 9.95519 77.1546Z" fill="#BADAF4"/>
<path d="M52.84 67.004C52.84 72.205 48.6229 76.4221 43.4219 76.4221C38.2209 76.4221 34.0039 72.205 34.0039 67.004C34.0039 61.803 38.2209 57.5859 43.4219 57.5859C48.6229 57.5859 52.84 61.803 52.84 67.004Z" fill="#BADAF4"/>
<path d="M83.2489 67.0092C83.2489 71.8839 79.298 75.8348 74.4233 75.8348C69.5486 75.8348 65.5977 71.8839 65.5977 67.0092C65.5977 62.1345 69.5486 58.1836 74.4233 58.1836C79.298 58.1836 83.2489 62.1345 83.2489 67.0092Z" fill="#BADAF4"/>
<path d="M112.485 66.8207C112.485 71.2988 108.855 74.9284 104.377 74.9284C99.8992 74.9284 96.2695 71.2988 96.2695 66.8207C96.2695 62.3427 99.8992 58.7129 104.377 58.7129C108.855 58.7129 112.485 62.3427 112.485 66.8207Z" fill="#BADAF4"/>
<path d="M140.22 67.198C140.22 71.4301 136.791 74.859 132.559 74.859C128.327 74.859 124.898 71.4301 124.898 67.198C124.898 62.966 128.327 59.5371 132.559 59.5371C136.791 59.5371 140.22 62.966 140.22 67.198Z" fill="#BADAF4"/>
<path d="M165.661 67.2016C165.661 71.1676 162.443 74.3856 158.477 74.3856C154.511 74.3856 151.293 71.1676 151.293 67.2016C151.293 63.2356 154.511 60.0176 158.477 60.0176C162.443 60.0176 165.661 63.2356 165.661 67.2016Z" fill="#BADAF4"/>
<path d="M9.95519 105.785C15.4533 105.785 19.9104 101.328 19.9104 95.8302C19.9104 90.3321 15.4533 85.875 9.95519 85.875C4.45708 85.875 0 90.3321 0 95.8302C0 101.328 4.45708 105.785 9.95519 105.785Z" fill="#BADAF4"/>
<path d="M52.84 95.6367C52.84 100.838 48.6229 105.055 43.4219 105.055C38.2209 105.055 34.0039 100.838 34.0039 95.6367C34.0039 90.4357 38.2209 86.2188 43.4219 86.2188C48.6229 86.2188 52.84 90.4357 52.84 95.6367Z" fill="#BADAF4"/>
<path d="M83.2489 95.6303C83.2489 100.505 79.298 104.456 74.4233 104.456C69.5486 104.456 65.5977 100.505 65.5977 95.6303C65.5977 90.7556 69.5486 86.8047 74.4233 86.8047C79.298 86.8047 83.2489 90.7556 83.2489 95.6303Z" fill="#BADAF4"/>
<path d="M112.485 95.4436C112.485 99.9217 108.855 103.551 104.377 103.551C99.8992 103.551 96.2695 99.9217 96.2695 95.4436C96.2695 90.9655 99.8992 87.3359 104.377 87.3359C108.855 87.341 112.485 90.9706 112.485 95.4436Z" fill="#BADAF4"/>
<path d="M140.22 95.8289C140.22 100.061 136.791 103.49 132.559 103.49C128.327 103.49 124.898 100.061 124.898 95.8289C124.898 91.5968 128.327 88.168 132.559 88.168C136.791 88.168 140.22 91.5968 140.22 95.8289Z" fill="#BADAF4"/>
<path d="M165.661 95.8246C165.661 99.7906 162.443 103.009 158.477 103.009C154.511 103.009 151.293 99.7906 151.293 95.8246C151.293 91.8586 154.511 88.6406 158.477 88.6406C162.443 88.6406 165.661 91.8536 165.661 95.8246Z" fill="#BADAF4"/>
<path d="M9.95519 134.407C15.4533 134.407 19.9104 129.949 19.9104 124.451C19.9104 118.953 15.4533 114.496 9.95519 114.496C4.45708 114.496 0 118.953 0 124.451C0 129.949 4.45708 134.407 9.95519 134.407Z" fill="#BADAF4"/>
<path d="M52.84 124.246C52.84 129.447 48.6229 133.664 43.4219 133.664C38.2209 133.664 34.0039 129.447 34.0039 124.246C34.0039 119.045 38.2209 114.828 43.4219 114.828C48.6229 114.828 52.84 119.045 52.84 124.246Z" fill="#BADAF4"/>
<path d="M83.2489 124.253C83.2489 129.128 79.298 133.079 74.4233 133.079C69.5486 133.079 65.5977 129.128 65.5977 124.253C65.5977 119.379 69.5486 115.428 74.4233 115.428C79.298 115.433 83.2489 119.384 83.2489 124.253Z" fill="#BADAF4"/>
<path d="M112.485 124.065C112.485 128.543 108.855 132.173 104.377 132.173C99.8992 132.173 96.2695 128.543 96.2695 124.065C96.2695 119.587 99.8992 115.957 104.377 115.957C108.855 115.957 112.485 119.587 112.485 124.065Z" fill="#BADAF4"/>
<path d="M140.22 124.45C140.22 128.682 136.791 132.111 132.559 132.111C128.327 132.111 124.898 128.682 124.898 124.45C124.898 120.218 128.327 116.789 132.559 116.789C136.791 116.789 140.22 120.218 140.22 124.45Z" fill="#BADAF4"/>
<path d="M165.661 124.444C165.661 128.41 162.443 131.628 158.477 131.628C154.511 131.628 151.293 128.41 151.293 124.444C151.293 120.478 154.511 117.26 158.477 117.26C162.443 117.26 165.661 120.478 165.661 124.444Z" fill="#BADAF4"/>
<path d="M19.9104 153.072C19.9104 158.57 15.4524 163.028 9.95519 163.028C4.45799 163.028 0 158.57 0 153.072C0 147.575 4.45799 143.117 9.95519 143.117C15.4524 143.117 19.9104 147.57 19.9104 153.072Z" fill="#BADAF4"/>
<path d="M52.84 152.877C52.84 158.078 48.6229 162.295 43.4219 162.295C38.2209 162.295 34.0039 158.078 34.0039 152.877C34.0039 147.676 38.2209 143.459 43.4219 143.459C48.6229 143.459 52.84 147.676 52.84 152.877Z" fill="#BADAF4"/>
<path d="M83.2489 152.874C83.2489 157.749 79.298 161.7 74.4233 161.7C69.5486 161.7 65.5977 157.749 65.5977 152.874C65.5977 148 69.5486 144.049 74.4233 144.049C79.298 144.049 83.2489 148 83.2489 152.874Z" fill="#BADAF4"/>
<path d="M112.485 152.696C112.485 157.174 108.855 160.803 104.377 160.803C99.8992 160.803 96.2695 157.174 96.2695 152.696C96.2695 148.217 99.8992 144.588 104.377 144.588C108.855 144.588 112.485 148.217 112.485 152.696Z" fill="#BADAF4"/>
<path d="M140.22 153.071C140.22 157.303 136.791 160.732 132.559 160.732C128.327 160.732 124.898 157.303 124.898 153.071C124.898 148.839 128.327 145.41 132.559 145.41C136.791 145.41 140.22 148.839 140.22 153.071Z" fill="#BADAF4"/>
<path d="M165.661 153.077C165.661 157.043 162.443 160.261 158.477 160.261C154.511 160.261 151.293 157.043 151.293 153.077C151.293 149.111 154.511 145.893 158.477 145.893C162.443 145.893 165.661 149.111 165.661 153.077Z" fill="#BADAF4"/>
<path d="M19.9104 181.693C19.9104 187.191 15.4524 191.649 9.95519 191.649C4.45799 191.649 0 187.191 0 181.693C0 176.196 4.45799 171.738 9.95519 171.738C15.4524 171.738 19.9104 176.196 19.9104 181.693Z" fill="#BADAF4"/>
<path d="M52.84 181.498C52.84 186.699 48.6229 190.916 43.4219 190.916C38.2209 190.916 34.0039 186.699 34.0039 181.498C34.0039 176.297 38.2209 172.08 43.4219 172.08C48.6229 172.08 52.84 176.297 52.84 181.498Z" fill="#BADAF4"/>
<path d="M83.2489 181.505C83.2489 186.38 79.298 190.331 74.4233 190.331C69.5486 190.331 65.5977 186.38 65.5977 181.505C65.5977 176.631 69.5486 172.68 74.4233 172.68C79.298 172.68 83.2489 176.631 83.2489 181.505Z" fill="#BADAF4"/>
<path d="M112.485 181.307C112.485 185.785 108.855 189.415 104.377 189.415C99.8992 189.415 96.2695 185.785 96.2695 181.307C96.2695 176.829 99.8992 173.199 104.377 173.199C108.855 173.204 112.485 176.829 112.485 181.307Z" fill="#BADAF4"/>
<path d="M140.22 181.694C140.22 185.926 136.791 189.355 132.559 189.355C128.327 189.355 124.898 185.926 124.898 181.694C124.898 177.462 128.327 174.033 132.559 174.033C136.791 174.033 140.22 177.462 140.22 181.694Z" fill="#BADAF4"/>
<path d="M165.661 181.696C165.661 185.662 162.443 188.88 158.477 188.88C154.511 188.88 151.293 185.662 151.293 181.696C151.293 177.73 154.511 174.512 158.477 174.512C162.443 174.512 165.661 177.73 165.661 181.696Z" fill="#BADAF4"/>
<path d="M19.9104 210.317C19.9104 215.814 15.4524 220.272 9.95519 220.272C4.45799 220.272 0 215.814 0 210.317C0 204.819 4.45799 200.361 9.95519 200.361C15.4524 200.361 19.9104 204.819 19.9104 210.317Z" fill="#BADAF4"/>
<path d="M52.84 210.121C52.84 215.322 48.6229 219.539 43.4219 219.539C38.2209 219.539 34.0039 215.322 34.0039 210.121C34.0039 204.92 38.2209 200.703 43.4219 200.703C48.6229 200.703 52.84 204.92 52.84 210.121Z" fill="#BADAF4"/>
<path d="M83.2489 210.126C83.2489 215.001 79.298 218.952 74.4233 218.952C69.5486 218.952 65.5977 215.001 65.5977 210.126C65.5977 205.252 69.5486 201.301 74.4233 201.301C79.298 201.306 83.2489 205.257 83.2489 210.126Z" fill="#BADAF4"/>
<path d="M112.485 209.94C112.485 214.418 108.855 218.047 104.377 218.047C99.8992 218.047 96.2695 214.418 96.2695 209.94C96.2695 205.462 99.8992 201.832 104.377 201.832C108.855 201.832 112.485 205.462 112.485 209.94Z" fill="#BADAF4"/>
<path d="M140.22 210.315C140.22 214.547 136.791 217.976 132.559 217.976C128.327 217.976 124.898 214.547 124.898 210.315C124.898 206.083 128.327 202.654 132.559 202.654C136.791 202.654 140.22 206.083 140.22 210.315Z" fill="#BADAF4"/>
<path d="M165.661 210.319C165.661 214.285 162.443 217.503 158.477 217.503C154.511 217.503 151.293 214.285 151.293 210.319C151.293 206.353 154.511 203.135 158.477 203.135C162.443 203.135 165.661 206.353 165.661 210.319Z" fill="#BADAF4"/>
</svg>
