<svg width="107" height="107" viewBox="0 0 107 107" fill="none" xmlns="http://www.w3.org/2000/svg">
<path d="M45.271 5.97822C50.1778 2.41321 56.8222 2.41321 61.729 5.97823L96.1525 30.9884C101.059 34.5534 103.113 40.8725 101.238 46.6409L88.0897 87.1082C86.2155 92.8765 80.8401 96.7819 74.7749 96.7819H32.2251C26.1599 96.7819 20.7845 92.8765 18.9103 87.1082L5.76167 46.6409C3.88743 40.8725 5.94065 34.5534 10.8475 30.9884L45.271 5.97822Z" fill="#1F6BFF" fill-opacity="0.1"/>
<path d="M46.3094 61.2395C44.3094 61.2395 42.7814 60.4875 41.7254 58.9835C40.6694 57.4635 40.1414 55.3035 40.1414 52.5035C40.1414 49.6715 40.6694 47.5195 41.7254 46.0475C42.7814 44.5755 44.3094 43.8395 46.3094 43.8395C48.3254 43.8395 49.8534 44.5755 50.8934 46.0475C51.9494 47.5195 52.4774 49.6635 52.4774 52.4795C52.4774 55.2955 51.9494 57.4635 50.8934 58.9835C49.8374 60.4875 48.3094 61.2395 46.3094 61.2395ZM46.3094 58.7195C47.3974 58.7195 48.1974 58.2155 48.7094 57.2075C49.2374 56.1995 49.5014 54.6235 49.5014 52.4795C49.5014 50.3355 49.2374 48.7835 48.7094 47.8235C48.1974 46.8475 47.3974 46.3595 46.3094 46.3595C45.2374 46.3595 44.4374 46.8475 43.9094 47.8235C43.3814 48.7835 43.1174 50.3355 43.1174 52.4795C43.1174 54.6235 43.3814 56.1995 43.9094 57.2075C44.4374 58.2155 45.2374 58.7195 46.3094 58.7195ZM56.692 60.9995C56.18 60.9995 55.804 60.8875 55.564 60.6635C55.34 60.4235 55.228 60.0795 55.228 59.6315C55.228 59.3595 55.3 59.0955 55.444 58.8395C55.588 58.5835 55.796 58.3115 56.068 58.0235L60.892 52.8875C61.628 52.1195 62.156 51.4235 62.476 50.7995C62.796 50.1595 62.956 49.5195 62.956 48.8795C62.956 47.2475 61.972 46.4315 60.004 46.4315C59.46 46.4315 58.916 46.5115 58.372 46.6715C57.828 46.8155 57.276 47.0715 56.716 47.4395C56.364 47.6795 56.036 47.7515 55.732 47.6555C55.428 47.5595 55.196 47.3675 55.036 47.0795C54.876 46.7755 54.82 46.4555 54.868 46.1195C54.932 45.7835 55.14 45.4955 55.492 45.2555C56.18 44.7915 56.948 44.4395 57.796 44.1995C58.66 43.9595 59.524 43.8395 60.388 43.8395C62.196 43.8395 63.58 44.2475 64.54 45.0635C65.516 45.8795 66.004 47.0475 66.004 48.5675C66.004 49.5915 65.756 50.5755 65.26 51.5195C64.78 52.4635 64.02 53.4795 62.98 54.5675L59.26 58.4555H65.524C66.404 58.4555 66.844 58.8715 66.844 59.7035C66.844 60.5675 66.404 60.9995 65.524 60.9995H56.692Z" fill="#1F6BFF"/>
</svg>
