<svg width="97" height="37" viewBox="0 0 97 37" fill="none" xmlns="http://www.w3.org/2000/svg">
<path d="M37.4962 23C38.9435 23 40.1417 22.453 40.9247 21.4461L39.6909 20.2528C39.1333 20.9365 38.4334 21.2845 37.603 21.2845C36.0489 21.2845 34.9456 20.1409 34.9456 18.5C34.9456 16.8591 36.0489 15.7155 37.603 15.7155C38.4334 15.7155 39.1333 16.0635 39.6909 16.7348L40.9247 15.5414C40.1417 14.547 38.9435 14 37.508 14C34.9219 14 33 15.8771 33 18.5C33 21.1229 34.9219 23 37.4962 23Z" fill="#050931"/>
<path d="M42.2225 22.8508H48.3084V21.2099H44.1443V14.1492H42.2225V22.8508Z" fill="#050931"/>
<path d="M51.2922 21.2348V19.221H55.1477V17.6547H51.2922V15.7652H55.6579V14.1492H49.3822V22.8508H55.8121V21.2348H51.2922Z" fill="#050931"/>
<path d="M63.5457 22.8508H65.5625L61.8493 14.1492H59.9512L56.2498 22.8508H58.2191L58.9546 20.9862H62.8102L63.5457 22.8508ZM59.5715 19.4572L60.8884 16.1257L62.2052 19.4572H59.5715Z" fill="#050931"/>
<path d="M72.1422 14.1492V19.4323L68.0137 14.1492H66.4241V22.8508H68.3222V17.5677L72.4625 22.8508H74.0403V14.1492H72.1422Z" fill="#050931"/>
<path d="M76.0051 22.8508H77.9269V14.1492H76.0051V22.8508Z" fill="#050931"/>
<path d="M85.6158 14.1492V19.4323L81.4874 14.1492H79.8977V22.8508H81.7958V17.5677L85.9361 22.8508H87.5139V14.1492H85.6158Z" fill="#050931"/>
<path d="M95.09 20.9116C94.6036 21.1851 94.1172 21.2845 93.5952 21.2845C92.0056 21.2845 90.9023 20.1285 90.9023 18.5C90.9023 16.8467 92.0056 15.7155 93.619 15.7155C94.4613 15.7155 95.1612 16.0262 95.7662 16.6975L97 15.5041C96.1933 14.5221 94.9832 14 93.5241 14C90.8786 14 88.9567 15.8771 88.9567 18.5C88.9567 21.1229 90.8786 23 93.4885 23C94.6748 23 95.9323 22.6146 96.8458 21.8936V18.3633H95.09V20.9116Z" fill="#050931"/>
<path d="M16 21H0V17H16" fill="#222326"/>
<path fill-rule="evenodd" clip-rule="evenodd" d="M0 16.787C0 16.3523 0.334012 16 0.746037 16H15.254C15.666 16 16 16.3523 16 16.787C16 17.2216 15.666 17.574 15.254 17.574H1.49207V19.426H15.254C15.666 19.426 16 19.7784 16 20.213C16 20.6477 15.666 21 15.254 21H0.746037C0.334012 21 0 20.6477 0 20.213V16.787Z" fill="#222326"/>
<path d="M27 36L27 1L22 1V36H27Z" fill="#222326"/>
<path fill-rule="evenodd" clip-rule="evenodd" d="M26.236 0C26.6579 0 27 0.353862 27 0.790373L27 36.2096C27 36.6461 26.6579 37 26.236 37H21.764C21.3421 37 21 36.6461 21 36.2096V0.790373C21 0.353862 21.3421 0 21.764 0L26.236 0ZM25.472 1.58075L22.528 1.58075V35.4193H25.472L25.472 1.58075Z" fill="#222326"/>
<path fill-rule="evenodd" clip-rule="evenodd" d="M21.3388 0C21.704 0 22 0.353661 22 0.789923L22 36.2101C22 36.6463 21.704 37 21.3388 37H18.306C17.4292 37 16.5883 36.5839 15.9683 35.8432C15.3483 35.1025 15 34.0979 15 33.0504L15 3.94962C15 2.90211 15.3483 1.89751 15.9683 1.15681C16.5883 0.416115 17.4292 0 18.306 0L21.3388 0ZM20.6776 1.57985L18.306 1.57985C17.78 1.57985 17.2754 1.82952 16.9034 2.27393C16.5314 2.71835 16.3224 3.32111 16.3224 3.94962V33.0504C16.3224 33.6789 16.5314 34.2816 16.9034 34.7261C17.2754 35.1705 17.78 35.4202 18.306 35.4202H20.6776L20.6776 1.57985Z" fill="#222326"/>
<path fill-rule="evenodd" clip-rule="evenodd" d="M30 1C30 0.447715 30.3583 0 30.8002 0H56.1998C56.6417 0 57 0.447715 57 1C57 1.55228 56.6417 2 56.1998 2H30.8002C30.3583 2 30 1.55228 30 1Z" fill="#222326"/>
<path fill-rule="evenodd" clip-rule="evenodd" d="M61 1C61 0.447715 61.292 0 61.6522 0H62.3478C62.708 0 63 0.447715 63 1C63 1.55228 62.708 2 62.3478 2H61.6522C61.292 2 61 1.55228 61 1Z" fill="#222326"/>
<path fill-rule="evenodd" clip-rule="evenodd" d="M72 1C72 0.447715 72.437 0 72.9761 0H74.0239C74.563 0 75 0.447715 75 1C75 1.55228 74.563 2 74.0239 2H72.9761C72.437 2 72 1.55228 72 1Z" fill="#222326"/>
</svg>
